<svg width="1117" height="538" viewBox="0 0 1117 538" fill="none" xmlns="http://www.w3.org/2000/svg">
<path fill-rule="evenodd" clip-rule="evenodd" d="M717.851 4.82841C717.441 2.15703 715.261 0 712.558 0H4.99999C2.23857 0 0 2.23858 0 5V533C0 535.761 2.23858 538 5 538H699.861C703.049 538 705.409 535.046 705.229 531.863C704.748 523.324 707.013 514.566 712.17 507.493C722.797 492.918 741.678 491.016 754.342 503.247C761.927 510.57 765.561 521.301 764.975 531.862C764.798 535.045 767.159 538 770.347 538H1112C1114.76 538 1117 535.761 1117 533V5C1117 2.23857 1114.76 0 1112 0H782.1C779.396 0 777.215 2.15961 776.806 4.83279C775.924 10.5877 773.756 16.1615 770.257 20.9598C759.631 35.5351 740.75 37.4362 728.085 25.2061C722.48 19.7932 719.032 12.5193 717.851 4.82841Z" fill="#0B2447" fill-opacity="0.976471"/>
</svg>
